PathFileType	4	(X/Y/Z)	c:/Users/goper/Files/vsCode/490R/osim_files/A06/A06_SSWS_01.trc
DataRate	CameraRate	NumFrames	NumMarkers	Units                	OrigDataRate	OrigDataStartFrame	OrigNumFrames
120.00	120.00	8	36	mm	120.0	2794	3192
                Frame#	Time	LPSIS			LASIS			LTH1			LTH2			LTH3			LTH4			LLFE			LMFE			LSH1			LSH2			LSH3			LSH4			LLMAL			LMMAL			LCAL			LMTP5			LTOE			LMTP1			RPSIS			RASIS			RTH1			RTH2			RTH3			RTH4			RLFE			RMFE			RSH1			RSH2			RSH3			RSH4			RLMAL			RMMAL			RCAL			RMTP1			RTOE			RMTP5		
		X1	Y1	Z1	X2	Y2	Z2	X3	Y3	Z3	X4	Y4	Z4	X5	Y5	Z5	X6	Y6	Z6	X7	Y7	Z7	X8	Y8	Z8	X9	Y9	Z9	X10	Y10	Z10	X11	Y11	Z11	X12	Y12	Z12	X13	Y13	Z13	X14	Y14	Z14	X15	Y15	Z15	X16	Y16	Z16	X17	Y17	Z17	X18	Y18	Z18	X19	Y19	Z19	X20	Y20	Z20	X21	Y21	Z21	X22	Y22	Z22	X23	Y23	Z23	X24	Y24	Z24	X25	Y25	Z25	X26	Y26	Z26	X27	Y27	Z27	X28	Y28	Z28	X29	Y29	Z29	X30	Y30	Z30	X31	Y31	Z31	X32	Y32	Z32	X33	Y33	Z33	X34	Y34	Z34	X35	Y35	Z35	X36	Y36	Z36

2794	23.27500	-2273.37744	951.40417	352.04218	-2466.69824	903.23798	418.97781	-2282.89014	568.52222	452.70697	-2278.58765	526.05627	450.10895	-2343.64673	546.97412	448.52948	-2326.09009	507.65744	444.46613	-2268.49219	448.17706	434.41830	-2277.53589	440.01816	326.08377	-2163.31055	402.02396	444.71039	-2142.30200	360.09070	450.23743	-2215.39575	365.55408	441.54318	-2189.30151	332.64517	443.94025	-1999.70923	145.70027	403.33228	-2024.17957	151.25647	319.91882	-1940.29370	174.10800	352.86612	-2066.80176	40.59974	413.04410	-2105.17432	47.84531	355.12717	-2090.00195	50.93095	318.68112	-2269.54858	968.80664	219.58426	-2447.94897	937.14661	161.71716	-2419.69189	552.50928	134.49533	-2436.11060	513.98138	133.29785	-2473.91089	575.45355	136.79793	-2484.38281	532.23474	135.12654	-2492.96387	415.49231	161.98825	-2497.29858	421.05429	250.37932	-2519.88379	261.82257	182.12181	-2535.23071	216.48486	186.07907	-2578.61743	276.35791	190.26993	-2585.48999	228.88800	188.49825	-2579.29395	95.61300	181.29245	-2594.14722	107.37399	265.63251	-2531.19849	73.50506	233.49319	-2731.56738	84.04456	252.36461	-2742.78516	96.64873	210.78732	-2717.72998	73.04243	166.00119
2795	23.28333	-2284.62866	953.06299	351.79282	-2478.12598	904.70660	418.92337	-2298.99902	566.73096	453.46414	-2295.79077	524.24768	451.19815	-2359.52173	545.97522	449.11920	-2343.39941	506.14471	445.80573	-2287.11548	446.32318	436.12549	-2296.09741	437.90503	327.59387	-2179.91431	403.07175	445.57248	-2156.65356	363.20758	450.07019	-2230.59692	365.34009	443.00552	-2203.48926	333.28766	445.41824	-2008.71814	151.96658	403.89987	-2033.71094	156.07993	320.80075	-1951.40942	184.01939	353.33694	-2069.10840	42.23915	413.16071	-2107.11304	48.41981	355.32407	-2092.50073	51.94194	318.73700	-2281.69653	971.05682	219.69809	-2460.17554	938.60144	162.01752	-2427.33521	553.60065	133.89302	-2444.41675	514.72137	132.24677	-2481.43457	575.96228	135.88194	-2491.34473	532.60474	134.23541	-2498.23315	415.82074	161.32013	-2503.40698	421.52835	249.72011	-2523.87427	261.56989	181.54301	-2538.24609	216.37991	185.77431	-2582.43774	275.60776	189.54295	-2588.64966	228.11116	187.78340	-2580.72144	95.07319	181.06215	-2596.26953	106.80234	265.06165	-2532.50024	73.99020	233.47267	-2733.17847	81.08376	251.20740	-2744.42188	93.11098	209.52541	-2718.77905	69.74651	165.04192
2796	23.29167	-2296.96631	954.65894	351.87653	-2490.25464	906.59943	418.46619	-2316.07056	564.75256	454.19092	-2313.99854	522.14648	452.26123	-2376.66992	544.67834	449.79520	-2361.26343	504.83917	446.59412	-2306.52417	444.40884	437.66272	-2316.02734	435.48694	329.14362	-2197.57178	405.02844	446.28149	-2173.29248	365.37723	450.86545	-2247.32422	365.19589	444.36404	-2219.27246	334.01373	446.69244	-2019.02417	158.72002	404.54620	-2044.77368	161.25058	321.75848	-1964.33020	194.71155	354.04803	-2071.89160	44.45737	413.26990	-2109.99438	49.15444	355.67770	-2095.84058	53.61295	318.80875	-2293.38379	973.28528	219.85876	-2471.82056	940.33765	162.02124	-2434.98657	554.78436	133.66316	-2446.95679	517.93170	132.02016	-2489.04028	576.65039	135.43896	-2498.41724	533.16437	133.73431	-2503.81152	416.33487	160.98645	-2509.41211	422.06378	249.36472	-2527.03369	262.04901	181.46913	-2541.29443	216.33557	185.52446	-2586.24292	275.03781	189.15344	-2591.85815	227.41794	187.41756	-2581.65015	94.37031	181.07787	-2598.21265	106.27496	264.71008	-2533.24194	74.61581	233.12497	-2734.65723	78.27988	250.78514	-2745.93115	89.83384	208.89575	-2719.81763	66.92633	164.48853
2797	23.30000	-2307.71777	956.78662	351.62054	-2501.33105	908.50153	418.36423	-2334.04175	562.70428	454.84998	-2331.73706	519.11658	451.90796	-2394.69775	543.45483	450.35397	-2380.10938	503.00558	447.47815	-2327.09790	442.43494	439.08823	-2337.08008	432.66763	330.63797	-2217.13135	405.89395	447.14755	-2191.49341	367.46280	451.74243	-2265.53467	365.00266	445.67285	-2236.41968	334.68964	447.96951	-2030.91199	165.49001	404.48993	-2057.67383	168.08841	322.40820	-1979.05896	206.16924	354.56000	-2075.22754	47.73604	413.45477	-2113.68506	50.09208	356.02176	-2099.90332	55.82891	319.06750	-2304.78345	975.37183	219.95650	-2482.95825	942.21716	161.70995	-2442.76660	556.06049	133.61070	-2453.70264	519.03540	132.00421	-2496.70898	577.42889	135.37007	-2505.50854	533.83423	133.67044	-2509.34180	416.94083	160.84299	-2514.96826	422.61087	249.26736	-2530.96216	262.16443	181.30093	-2544.24243	216.50145	185.47145	-2590.01172	274.61349	189.04065	-2595.02588	226.85005	187.37495	-2583.73682	94.50294	181.04454	-2599.92822	105.84184	264.61206	-2534.67358	75.00404	233.22290	-2735.95435	75.65952	251.57587	-2747.83569	87.07874	209.09302	-2720.74072	64.49728	164.38304
2798	23.30833	-2317.35571	959.31244	351.20877	-2511.72852	910.52844	417.40015	-2353.54956	559.34570	455.69882	-2351.46387	516.79749	452.53177	-2415.28687	544.44800	449.97842	-2399.97534	501.83435	447.83804	-2348.66895	440.36658	440.12027	-2359.19995	429.80164	331.86594	-2237.54321	407.02982	447.78772	-2210.85205	369.51099	452.46683	-2284.90234	364.58734	446.58771	-2254.88721	335.32510	448.94254	-2044.06165	173.50470	405.11475	-2070.17065	173.23988	323.16907	-1995.44897	218.06606	355.27826	-2079.54712	51.97430	413.72415	-2118.46045	51.49218	356.66653	-2105.01978	58.79563	319.54294	-2315.76636	977.26147	219.91910	-2493.53906	943.91693	160.98526	-2444.60645	560.52710	131.86551	-2460.62061	520.39020	131.93652	-2504.25391	578.22205	135.33482	-2512.47144	534.51703	133.74573	-2514.80518	417.57742	160.83034	-2520.46875	423.12021	249.25232	-2534.54858	262.51743	181.28949	-2547.25195	216.72285	185.51845	-2593.71729	274.24310	189.09238	-2598.10400	226.35703	187.43918	-2584.76685	93.97083	181.30765	-2601.05762	105.18250	264.34433	-2535.71631	75.25188	233.29005	-2737.19653	73.25668	251.81735	-2748.57666	84.45223	208.82460	-2721.20557	62.69792	164.14043
2799	23.31667	-2329.74048	960.53613	351.69391	-2522.78931	912.84363	416.98730	-2372.94116	556.80151	456.31171	-2371.79712	514.17676	452.62936	-2434.83179	543.84552	450.09540	-2420.15186	500.55142	448.09879	-2370.91406	438.23230	440.69415	-2382.05591	427.15628	332.66354	-2259.66748	408.02444	448.29425	-2231.42065	371.43365	452.92734	-2304.87549	365.09613	447.23392	-2274.04590	336.60388	449.56708	-2058.89404	181.72934	405.99832	-2085.03369	179.56215	323.96350	-2013.97815	230.05690	356.25497	-2084.90381	57.03366	414.10583	-2123.89844	52.93470	357.39819	-2111.23779	62.32848	320.23154	-2326.57300	978.97797	219.87534	-2503.73999	945.48480	160.07083	-2451.67114	562.27826	131.70911	-2467.24414	521.93158	131.82846	-2511.67090	579.16675	135.29189	-2519.38110	535.31665	133.66089	-2520.26196	418.32401	160.83310	-2525.84009	424.28003	249.05583	-2537.92651	263.11014	181.26576	-2550.04053	217.10974	185.44980	-2597.22363	274.07147	189.09383	-2600.98901	226.21410	187.54361	-2586.66357	94.47280	181.50166	-2602.32129	104.94675	264.24393	-2536.34375	75.81110	233.25902	-2738.09473	71.39126	252.20911	-2749.81274	82.45754	209.16095	-2721.83838	60.26649	163.81100
2800	23.32500	-2340.04077	962.59827	351.58182	-2532.77441	915.35242	415.90692	-2392.62891	554.78217	457.04068	-2392.17163	512.44519	453.31995	-2454.53857	543.34210	450.42145	-2440.48389	499.48196	448.14056	-2393.60474	436.36621	440.84909	-2405.21729	424.96494	332.84143	-2282.28247	408.97260	448.48419	-2253.03149	373.33304	453.28622	-2326.35303	365.77087	446.15561	-2294.67725	337.34277	449.62796	-2075.62427	189.72194	407.38708	-2101.02344	185.74384	324.80173	-2034.49011	241.61636	357.54639	-2091.57300	62.69424	414.40228	-2131.97510	55.28423	358.60675	-2118.67798	66.44944	321.09296	-2336.91797	980.83191	219.73079	-2513.72412	946.91913	158.94682	-2458.73242	564.08191	131.57430	-2473.86987	523.49408	131.74582	-2518.89160	580.14600	135.24559	-2526.84155	536.50793	133.99142	-2525.37915	419.28302	160.79884	-2530.92456	425.07062	249.08904	-2541.04858	263.80963	181.23637	-2552.73193	217.63940	185.42238	-2600.57520	274.04385	189.20699	-2603.75415	226.10158	187.55180	-2587.76367	94.68581	181.70703	-2603.25757	104.87085	264.19299	-2536.96216	76.32460	233.23622	-2738.89380	69.30453	252.50854	-2750.86401	80.85104	209.53972	-2723.07715	58.94015	164.24805
2801	23.33333	-2350.00610	964.81390	351.43130	-2542.72046	917.76178	415.23047	-2411.83081	553.11542	457.51965	-2411.94995	511.09375	452.87180	-2473.64795	544.51697	448.76752	0.00000	0.00000	0.00000	-2416.18726	434.82605	440.55582	-2428.23730	424.07092	332.64825	-2305.46289	409.86029	448.52448	-2275.34131	374.85895	453.50809	-2348.35962	365.56851	445.81500	-2316.19824	337.86615	449.43594	-2093.87354	197.02403	408.54504	-2118.99854	191.67711	327.23450	-2056.29077	252.42119	358.92252	-2099.92383	69.05274	414.50165	-2140.36621	57.08897	359.47729	-2127.32495	71.18183	321.92102	-2347.32788	982.64508	219.66226	-2524.50171	948.82471	158.06384	-2466.89111	565.91125	131.81071	-2480.04224	525.17645	131.54605	-2526.55566	581.34027	135.54021	-2532.49536	537.22253	133.65384	-2530.33276	420.29684	160.74785	-2535.83203	426.02490	248.98734	-2544.04102	264.63724	181.19130	-2555.21680	218.34131	185.40651	-2603.71582	274.13434	189.30829	-2606.44946	226.17442	187.69516	-2588.72949	94.96632	181.87555	-2604.01855	104.91492	264.11356	-2537.30835	76.72945	233.19542	-2739.30786	68.16939	252.94098	-2751.92334	79.83660	209.85892	-2723.23755	58.08281	164.35147
